<svg xmlns="http://www.w3.org/2000/svg" viewBox="0 0 2000 400" width="2000" height="400" role="img" aria-labelledby="title desc">
  <title id="title">Connected finance systems</title>
  <desc id="desc">A horizontal integrations graphic showing major ERP, accounting, CRM, billing, payment, API, and secure file sources connected to the Ledgewave command layer.</desc>
  <defs>
    <linearGradient id="bg" x1="0" y1="0" x2="1" y2="1">
      <stop offset="0%" stop-color="#f6f9ff"/>
      <stop offset="100%" stop-color="#e4eefc"/>
    </linearGradient>
    <linearGradient id="panel" x1="0" y1="0" x2="1" y2="1">
      <stop offset="0%" stop-color="#0c1930"/>
      <stop offset="100%" stop-color="#153d98"/>
    </linearGradient>
  </defs>
  <rect width="2000" height="400" rx="40" fill="url(#bg)"/>
  <circle cx="1570" cy="42" r="180" fill="#dce8ff" opacity="0.8"/>
  <circle cx="197" cy="356" r="140" fill="#cfe0ff" opacity="0.7"/>
  <text x="84" y="96" fill="#1748ca" font-family="Space Grotesk, Segoe UI, sans-serif" font-size="28" font-weight="700" letter-spacing="4">LEDGEWAVE</text>
  <text x="84" y="150" fill="#0a1420" font-family="Space Grotesk, Segoe UI, sans-serif" font-size="54" font-weight="700">Connected source systems</text>
  <text x="84" y="190" fill="#465364" font-family="Manrope, Segoe UI, sans-serif" font-size="24">ERP, accounting, CRM, billing, payment, commerce, API, and secure file paths.</text>

  <g font-family="Manrope, Segoe UI, sans-serif" font-size="20" font-weight="700">
    <g transform="translate(74 232)">
      <rect width="190" height="54" rx="18" fill="#ffffff" stroke="#d8e0ec"/>
      <text x="24" y="35" fill="#0a1420">NetSuite</text>
    </g>
    <g transform="translate(284 232)">
      <rect width="190" height="54" rx="18" fill="#ffffff" stroke="#d8e0ec"/>
      <text x="24" y="35" fill="#0a1420">QuickBooks</text>
    </g>
    <g transform="translate(494 232)">
      <rect width="190" height="54" rx="18" fill="#ffffff" stroke="#d8e0ec"/>
      <text x="24" y="35" fill="#0a1420">Xero</text>
    </g>
    <g transform="translate(704 232)">
      <rect width="190" height="54" rx="18" fill="#ffffff" stroke="#d8e0ec"/>
      <text x="24" y="35" fill="#0a1420">Sage Intacct</text>
    </g>
    <g transform="translate(914 232)">
      <rect width="190" height="54" rx="18" fill="#ffffff" stroke="#d8e0ec"/>
      <text x="24" y="35" fill="#0a1420">Dynamics 365</text>
    </g>
    <g transform="translate(1124 232)">
      <rect width="190" height="54" rx="18" fill="#ffffff" stroke="#d8e0ec"/>
      <text x="24" y="35" fill="#0a1420">Salesforce</text>
    </g>
    <g transform="translate(74 306)">
      <rect width="190" height="54" rx="18" fill="#ffffff" stroke="#d8e0ec"/>
      <text x="24" y="35" fill="#0a1420">SAP</text>
    </g>
    <g transform="translate(284 306)">
      <rect width="190" height="54" rx="18" fill="#ffffff" stroke="#d8e0ec"/>
      <text x="24" y="35" fill="#0a1420">Oracle</text>
    </g>
    <g transform="translate(494 306)">
      <rect width="190" height="54" rx="18" fill="#ffffff" stroke="#d8e0ec"/>
      <text x="24" y="35" fill="#0a1420">HubSpot</text>
    </g>
    <g transform="translate(704 306)">
      <rect width="190" height="54" rx="18" fill="#ffffff" stroke="#d8e0ec"/>
      <text x="24" y="35" fill="#0a1420">Stripe</text>
    </g>
    <g transform="translate(914 306)">
      <rect width="190" height="54" rx="18" fill="#ffffff" stroke="#d8e0ec"/>
      <text x="24" y="35" fill="#0a1420">Chargebee</text>
    </g>
    <g transform="translate(1124 306)">
      <rect width="190" height="54" rx="18" fill="#ffffff" stroke="#d8e0ec"/>
      <text x="24" y="35" fill="#0a1420">Bill.com</text>
    </g>
  </g>

  <g stroke="#8ba9ea" stroke-width="8" stroke-linecap="round">
    <line x1="1336" y1="280" x2="1408" y2="280"/>
  </g>

  <g transform="translate(1408 158)">
    <rect width="508" height="202" rx="34" fill="url(#panel)"/>
    <text x="42" y="58" fill="#d7e4ff" font-family="Space Grotesk, Segoe UI, sans-serif" font-size="22" font-weight="700" letter-spacing="3">LEDGEWAVE</text>
    <text x="42" y="100" fill="#ffffff" font-family="Space Grotesk, Segoe UI, sans-serif" font-size="38" font-weight="700">Receivables command</text>
    <text x="42" y="140" fill="#e9f1ff" opacity="0.82" font-family="Manrope, Segoe UI, sans-serif" font-size="22">Priority, context, follow-up, reports, forecast.</text>
    <rect x="42" y="162" width="122" height="10" rx="5" fill="#8fe1c4"/>
    <rect x="180" y="162" width="122" height="10" rx="5" fill="#9fc2ff"/>
    <rect x="318" y="162" width="122" height="10" rx="5" fill="#ffffff" opacity="0.58"/>
  </g>
</svg>
