<svg xmlns="http://www.w3.org/2000/svg" viewBox="0 0 1600 1200" width="1600" height="1200" role="img" aria-labelledby="title desc">
  <title id="title">Planned Billing guide cover</title>
  <desc id="desc">A branded guide cover focused on planned billing and its impact on collections forecasting.</desc>
  <defs>
    <linearGradient id="bg" x1="0" y1="0" x2="1" y2="1">
      <stop offset="0%" stop-color="#f6faff"/>
      <stop offset="100%" stop-color="#e3f4f1"/>
    </linearGradient>
  </defs>
  <rect width="1600" height="1200" rx="42" fill="url(#bg)"/>
  <circle cx="1280" cy="162" r="210" fill="#dce8ff"/>
  <text x="96" y="124" fill="#1748ca" font-family="Space Grotesk, Segoe UI, sans-serif" font-size="28" font-weight="700" letter-spacing="4">LEDGEWAVE GUIDE</text>
  <text x="96" y="254" fill="#0a1420" font-family="Space Grotesk, Segoe UI, sans-serif" font-size="90" font-weight="700">Planned Billing</text>
  <text x="96" y="344" fill="#0a1420" font-family="Space Grotesk, Segoe UI, sans-serif" font-size="90" font-weight="700">Guide</text>
  <text x="96" y="416" fill="#465364" font-family="Manrope, Segoe UI, sans-serif" font-size="32">Why forecast quality improves when</text>
  <text x="96" y="460" fill="#465364" font-family="Manrope, Segoe UI, sans-serif" font-size="32">billing sits beside receivables.</text>
  <g transform="translate(88 560)">
    <rect width="560" height="450" rx="34" fill="#ffffff" stroke="rgba(23,36,54,0.12)"/>
    <text x="42" y="62" fill="#1748ca" font-family="Space Grotesk, Segoe UI, sans-serif" font-size="22" font-weight="700">FORECAST INPUTS</text>
    <rect x="42" y="104" width="476" height="42" rx="18" fill="#dce8ff"/>
    <rect x="42" y="164" width="428" height="42" rx="18" fill="#dce8ff"/>
    <rect x="42" y="224" width="390" height="42" rx="18" fill="#dce8ff"/>
    <rect x="42" y="310" width="134" height="94" rx="22" fill="#1748ca"/>
    <rect x="196" y="310" width="134" height="94" rx="22" fill="#2d71ff"/>
    <rect x="350" y="310" width="134" height="94" rx="22" fill="#8fe1c4"/>
  </g>
  <g transform="translate(850 222)">
    <rect width="620" height="756" rx="36" fill="#0b1730"/>
    <text x="48" y="70" fill="#8fb2ff" font-family="Space Grotesk, Segoe UI, sans-serif" font-size="22" font-weight="700">BILLING HORIZON</text>
    <rect x="48" y="116" width="524" height="180" rx="30" fill="#ffffff"/>
    <g fill="#dce8ff">
      <rect x="84" y="158" width="86" height="86" rx="18"/>
      <rect x="194" y="158" width="86" height="86" rx="18"/>
      <rect x="304" y="158" width="86" height="86" rx="18"/>
      <rect x="414" y="158" width="86" height="86" rx="18"/>
    </g>
    <rect x="48" y="346" width="524" height="340" rx="30" fill="rgba(255,255,255,0.08)"/>
    <g fill="#8fe1c4">
      <rect x="92" y="608" width="82" height="36" rx="18"/>
      <rect x="192" y="556" width="82" height="88" rx="18"/>
      <rect x="292" y="494" width="82" height="150" rx="18"/>
      <rect x="392" y="526" width="82" height="118" rx="18"/>
      <rect x="492" y="454" width="40" height="190" rx="18"/>
    </g>
    <text x="92" y="406" fill="#ffffff" font-family="Manrope, Segoe UI, sans-serif" font-size="26" font-weight="700">Include near-term billing</text>
    <text x="92" y="444" fill="#ffffff" font-family="Manrope, Segoe UI, sans-serif" font-size="26" font-weight="700">in the same review.</text>
  </g>
</svg>
