<svg xmlns="http://www.w3.org/2000/svg" viewBox="0 0 1600 1200" width="1600" height="1200" role="img" aria-labelledby="title desc">
  <title id="title">Spreadsheet Exit Plan guide cover</title>
  <desc id="desc">A branded editorial guide cover showing the shift from spreadsheet-heavy collections work to a cleaner operating workflow.</desc>
  <defs>
    <linearGradient id="bg" x1="0" y1="0" x2="1" y2="1">
      <stop offset="0%" stop-color="#071321"/>
      <stop offset="100%" stop-color="#153d98"/>
    </linearGradient>
  </defs>
  <rect width="1600" height="1200" rx="42" fill="url(#bg)"/>
  <rect x="0" y="0" width="720" height="1200" fill="#f6f9ff"/>
  <text x="96" y="124" fill="#1748ca" font-family="Space Grotesk, Segoe UI, sans-serif" font-size="28" font-weight="700" letter-spacing="4">LEDGEWAVE GUIDE</text>
  <text x="96" y="254" fill="#0a1420" font-family="Space Grotesk, Segoe UI, sans-serif" font-size="92" font-weight="700">Spreadsheet</text>
  <text x="96" y="344" fill="#0a1420" font-family="Space Grotesk, Segoe UI, sans-serif" font-size="92" font-weight="700">Exit Plan</text>
  <text x="96" y="422" fill="#465364" font-family="Manrope, Segoe UI, sans-serif" font-size="34">How collections teams move from exported data and recap tabs into a cleaner receivables operating model.</text>
  <g transform="translate(96 568)">
    <rect width="500" height="320" rx="30" fill="#ffffff" stroke="rgba(23,36,54,0.12)"/>
    <g fill="#dce8ff">
      <rect x="34" y="36" width="432" height="18" rx="9"/>
      <rect x="34" y="74" width="390" height="18" rx="9"/>
      <rect x="34" y="112" width="352" height="18" rx="9"/>
      <rect x="34" y="164" width="130" height="104" rx="20"/>
      <rect x="182" y="164" width="130" height="104" rx="20"/>
      <rect x="330" y="164" width="130" height="104" rx="20"/>
    </g>
  </g>
  <g transform="translate(860 182)">
    <rect width="500" height="836" rx="34" fill="rgba(255,255,255,0.08)" stroke="rgba(255,255,255,0.14)"/>
    <rect x="48" y="64" width="404" height="120" rx="24" fill="#ffffff"/>
    <text x="78" y="114" fill="#1748ca" font-family="Space Grotesk, Segoe UI, sans-serif" font-size="22" font-weight="700">OLD PROCESS</text>
    <text x="78" y="152" fill="#0a1420" font-family="Manrope, Segoe UI, sans-serif" font-size="28" font-weight="700">Exports, recap tabs, inbox follow-up</text>
    <g transform="translate(48 230)">
      <rect width="404" height="548" rx="28" fill="#f6f9ff"/>
      <rect x="32" y="34" width="154" height="182" rx="24" fill="#ffe2cc"/>
      <rect x="218" y="34" width="154" height="182" rx="24" fill="#dce8ff"/>
      <rect x="32" y="246" width="340" height="34" rx="17" fill="#dce8ff"/>
      <rect x="32" y="300" width="290" height="34" rx="17" fill="#dce8ff"/>
      <rect x="32" y="354" width="242" height="34" rx="17" fill="#dce8ff"/>
      <rect x="32" y="438" width="340" height="62" rx="22" fill="#1748ca"/>
      <text x="66" y="476" fill="#ffffff" font-family="Manrope, Segoe UI, sans-serif" font-size="26" font-weight="700">Move to one operating workflow</text>
    </g>
  </g>
</svg>
