<svg xmlns="http://www.w3.org/2000/svg" viewBox="0 0 1600 1200" width="1600" height="1200" role="img" aria-labelledby="title desc">
  <title id="title">Follow-Up History guide cover</title>
  <desc id="desc">A branded guide cover focused on account memory, notes, and promise-to-pay history.</desc>
  <defs>
    <linearGradient id="bg" x1="0" y1="0" x2="1" y2="1">
      <stop offset="0%" stop-color="#f5f8fd"/>
      <stop offset="100%" stop-color="#fff2e7"/>
    </linearGradient>
  </defs>
  <rect width="1600" height="1200" rx="42" fill="url(#bg)"/>
  <text x="96" y="124" fill="#1748ca" font-family="Space Grotesk, Segoe UI, sans-serif" font-size="28" font-weight="700" letter-spacing="4">LEDGEWAVE GUIDE</text>
  <text x="96" y="254" fill="#0a1420" font-family="Space Grotesk, Segoe UI, sans-serif" font-size="90" font-weight="700">Follow-Up</text>
  <text x="96" y="344" fill="#0a1420" font-family="Space Grotesk, Segoe UI, sans-serif" font-size="90" font-weight="700">History Guide</text>
  <text x="96" y="422" fill="#465364" font-family="Manrope, Segoe UI, sans-serif" font-size="34">Why shared account memory becomes more important as customer complexity, volume, and team size grow.</text>
  <g transform="translate(92 544)">
    <rect width="560" height="502" rx="34" fill="#ffffff" stroke="rgba(23,36,54,0.12)"/>
    <text x="42" y="64" fill="#1748ca" font-family="Space Grotesk, Segoe UI, sans-serif" font-size="22" font-weight="700">ACCOUNT MEMORY</text>
    <g fill="#dce8ff">
      <rect x="42" y="110" width="370" height="44" rx="18"/>
      <rect x="42" y="172" width="438" height="44" rx="18"/>
      <rect x="42" y="234" width="328" height="44" rx="18"/>
    </g>
    <path d="M96 346h0 0" fill="none" stroke="#1748ca" stroke-width="10"/>
    <g stroke="#8fb2ff" stroke-width="10" stroke-linecap="round">
      <line x1="94" y1="346" x2="94" y2="446"/>
      <line x1="94" y1="446" x2="464" y2="446"/>
    </g>
    <g fill="#1748ca">
      <circle cx="94" cy="346" r="18"/>
      <circle cx="278" cy="446" r="18"/>
      <circle cx="464" cy="446" r="18"/>
    </g>
  </g>
  <g transform="translate(830 190)">
    <rect width="674" height="840" rx="36" fill="#0b1730"/>
    <text x="54" y="74" fill="#8fb2ff" font-family="Space Grotesk, Segoe UI, sans-serif" font-size="22" font-weight="700">TIMELINE</text>
    <g transform="translate(54 128)">
      <rect width="566" height="134" rx="28" fill="#ffffff"/>
      <text x="34" y="52" fill="#0a1420" font-family="Manrope, Segoe UI, sans-serif" font-size="18" font-weight="700">Apr 14</text>
      <text x="34" y="94" fill="#0a1420" font-family="Manrope, Segoe UI, sans-serif" font-size="30" font-weight="700">Promise to pay confirmed for Friday close</text>
      <rect y="168" width="566" height="134" rx="28" fill="rgba(255,255,255,0.1)"/>
      <text x="34" y="220" fill="#d7e4ff" font-family="Manrope, Segoe UI, sans-serif" font-size="18" font-weight="700">Apr 11</text>
      <text x="34" y="262" fill="#ffffff" font-family="Manrope, Segoe UI, sans-serif" font-size="30" font-weight="700">Draft follow-up reviewed and sent</text>
      <rect y="336" width="566" height="134" rx="28" fill="rgba(255,255,255,0.1)"/>
      <text x="34" y="388" fill="#d7e4ff" font-family="Manrope, Segoe UI, sans-serif" font-size="18" font-weight="700">Apr 08</text>
      <text x="34" y="430" fill="#ffffff" font-family="Manrope, Segoe UI, sans-serif" font-size="30" font-weight="700">Invoice detail reviewed with dispute notes</text>
    </g>
  </g>
</svg>
